@startuml
'https://plantuml.com/state-diagram

state Frontpage.jsp
state login.jsp
state opretbruger.jsp
state logout.jsp
state hovedmenu.jsp



note bottom of hovedmenu.jsp
 er på alle sider og man logge
 ind og ud fra den og oprette en
 ny bruger og knappen til at
 se overview of sales er i den som
 admin og som user kan man se ens
 ordre/customerOrders.jsp, hvor man
 kan finde FOG ved Find FOG knappen
 og man kan komme tilbage til
 Frontpage.jsp ved at klikke på FOG ikonet
end note



[*] -right-> Frontpage.jsp
Frontpage.jsp --> login.jsp
login.jsp--> Frontpage.jsp :logget ind
Frontpage.jsp-->adminLoggedIn : admin
login.jsp --> login.jsp : fejl ved log ind
login.jsp --> opretbruger.jsp : oprettelse af ny bruger
opretbruger.jsp --> login.jsp : succeful oprettelse af ny bruger
opretbruger.jsp --> opretbruger.jsp : fejle i oprettelse a ny bruger
logout.jsp-->Frontpage.jsp : uanset hvor man logger ud



Frontpage.jsp --> materialeListe.jsp : bruger eller gæst
  materialeListe.jsp --> bestillinger.jsp : går til ordersiden


Frontpage.jsp --> bestillinger.jsp : bruger eller gæst
 bestillinger.jsp-->orderconformation.jsp : order bliver sat sammen med bruger eller gæst id
 orderconformation.jsp --> customerOrders.jsp
 bestillinger.jsp-->sale.jsp : orderoversigt/stykliste

note bottom of orderconformation.jsp
brugerne eller
gæsterne ser
dette her
end note

note bottom of sale.jsp
dybdegående
info af salget
end note

note right of bestillinger.jsp
Gæster skal indtaste
deres navn, email og by
end note

state adminLoggedIn{
[*]-->overviewofsales.jsp : går ind på orders/stykliste oversigt
overviewofsales.jsp -->overviewofsalesbyorderid.jsp : vælger den order/stykliste man vil se og godkende
sale.jsp-->overviewofsalesbyorderid.jsp : bliver fundet ud fra orders_id
overviewofsalesbyorderid.jsp --> customerOrders.jsp :  accepteret/betalt og hvis den er betalt kan man se styklisten
}



@enduml